<?xml version="1.0" encoding="utf-8"?>
<!-- Generator: Adobe Illustrator 15.0.0, SVG Export Plug-In . SVG Version: 6.00 Build 0)  -->
<!DOCTYPE svg PUBLIC "-//W3C//DTD SVG 1.1//EN" "http://www.w3.org/Graphics/SVG/1.1/DTD/svg11.dtd">
<svg version="1.1" id="Layer_1" xmlns="http://www.w3.org/2000/svg" xmlns:xlink="http://www.w3.org/1999/xlink" x="0px" y="0px"
	 width="500px" height="500px" viewBox="0 0 500 500" enable-background="new 0 0 500 500" xml:space="preserve">
<g>
	<path fill="#5A5B5B" d="M61.882,402.664c0-12.775,9.938-22.004,22.327-22.004c9.873,0,16.455,5.162,16.455,10.26
		c0,3.1-2.001,5.227-4.646,5.227c-2.905,0-4.905-1.807-4.905-4.58c0-0.84,0.194-1.678,0.453-2.194
		c-1.227-0.968-3.679-1.937-7.551-1.937c-8.26,0-14.583,6.324-14.583,15.164c0,8.52,5.936,15.294,14.906,15.294
		c4.969,0,9.034-2.193,12.196-5.613l4.839,5.032c-4.13,4.582-10.26,7.356-17.035,7.356
		C71.238,424.669,61.882,415.894,61.882,402.664"/>
	<path fill="#5A5B5B" d="M105.314,416.474c0-5.291,4.646-8.518,11.357-8.518c2.904,0,5.614,0.387,7.163,0.774v-2.26
		c0-1.678-0.387-2.969-1.097-3.872c-1.162-1.483-3.033-2.063-5.549-2.063c-1.226,0-2.129,0.192-2.775,0.451
		c0.129,0.388,0.258,1.032,0.258,1.42c0,2.13-1.678,3.678-3.808,3.678c-2.129,0-3.742-1.483-3.742-3.807
		c0-3.484,3.549-7.164,11.229-7.164c4.838,0,8.13,1.355,10.13,3.809c1.485,1.807,2.194,4.259,2.194,7.098v12.067h4.195v5.808
		h-10.906v-3.098c-2.258,1.937-5.679,3.614-9.485,3.614C109.638,424.411,105.314,421.765,105.314,416.474 M123.834,416.796v-4.452
		c-1.613-0.387-3.613-0.646-5.808-0.646c-3.42,0-5.485,1.549-5.485,4.13c0,2.259,1.679,3.484,4.195,3.484
		C119.253,419.312,121.705,418.345,123.834,416.796"/>
	<path fill="#5A5B5B" d="M163.07,399.761c0,2.389-1.871,4.389-4.194,4.389c-2.13,0-3.549-1.227-4.13-2.518
		c-2.001,0.71-4.323,2.904-5.614,5.356v11.099h4.904v5.808h-16.133v-5.808h4.195v-16.52h-4.195v-5.938h10.971v6.389
		c2.387-3.808,5.355-6.905,8.969-6.905C161.328,395.114,163.07,397.244,163.07,399.761"/>
	<path fill="#5A5B5B" d="M166.04,418.087h4.324v-16.52h-4.324v-5.938h11.357v22.456h4.195v5.808H166.04V418.087z M168.492,386.661
		c0-2.581,2.259-4.646,4.775-4.646c2.517,0,4.647,2.064,4.647,4.646s-2.259,4.646-4.776,4.646
		C170.622,391.307,168.492,389.242,168.492,386.661"/>
	<path fill="#5A5B5B" d="M190.693,420.539c-0.646-1.161-0.969-2.646-0.969-4.452v-14.52h-5.484v-5.938h5.484v-5.937l6.97-3.033v8.97
		h8.582v5.938h-8.582v13.164c0,0.902,0.129,1.483,0.451,2.063c0.517,0.903,1.549,1.355,2.969,1.355c1.807,0,3.872-0.71,5.55-1.484
		l-0.581,6.066c-1.936,0.968-4.195,1.678-6.776,1.678C194.887,424.411,192.112,423.249,190.693,420.539"/>
	<path fill="#5A5B5B" d="M209.73,416.474c0-5.291,4.646-8.518,11.357-8.518c2.904,0,5.614,0.387,7.163,0.774v-2.26
		c0-1.678-0.387-2.969-1.097-3.872c-1.162-1.483-3.033-2.063-5.549-2.063c-1.226,0-2.129,0.192-2.775,0.451
		c0.129,0.388,0.258,1.032,0.258,1.42c0,2.13-1.678,3.678-3.808,3.678c-2.129,0-3.742-1.483-3.742-3.807
		c0-3.484,3.549-7.164,11.229-7.164c4.838,0,8.13,1.355,10.13,3.809c1.485,1.807,2.194,4.259,2.194,7.098v12.067h4.195v5.808
		h-10.906v-3.098c-2.258,1.937-5.679,3.614-9.485,3.614C214.054,424.411,209.73,421.765,209.73,416.474 M228.25,416.796v-4.452
		c-1.613-0.387-3.613-0.646-5.808-0.646c-3.42,0-5.485,1.549-5.485,4.13c0,2.259,1.679,3.484,4.195,3.484
		C223.669,419.312,226.121,418.345,228.25,416.796"/>
	<polygon fill="#5A5B5B" points="241.546,418.087 245.74,418.087 245.74,382.596 241.546,382.596 241.546,376.659 252.773,376.659 
		252.773,408.343 261.034,401.245 257.098,401.245 257.098,395.631 273.811,395.631 273.811,401.567 268.584,401.567 
		262.002,407.117 269.164,417.958 273.811,417.958 273.811,423.895 264.971,423.895 256.84,411.183 252.773,414.603 
		252.773,418.216 256.323,418.216 256.323,423.895 241.546,423.895 	"/>
	<path fill="#5A5B5B" d="M277.299,416.474c0-5.291,4.646-8.518,11.355-8.518c2.904,0,5.615,0.387,7.164,0.774v-2.26
		c0-1.678-0.387-2.969-1.098-3.872c-1.162-1.483-3.033-2.063-5.55-2.063c-1.226,0-2.129,0.192-2.774,0.451
		c0.129,0.388,0.259,1.032,0.259,1.42c0,2.13-1.679,3.678-3.808,3.678c-2.13,0-3.742-1.483-3.742-3.807
		c0-3.484,3.549-7.164,11.229-7.164c4.838,0,8.131,1.355,10.131,3.809c1.484,1.807,2.193,4.259,2.193,7.098v12.067h4.195v5.808
		h-10.906v-3.098c-2.258,1.937-5.68,3.614-9.485,3.614C281.622,424.411,277.299,421.765,277.299,416.474 M295.818,416.796v-4.452
		c-1.613-0.387-3.613-0.646-5.809-0.646c-3.42,0-5.484,1.549-5.484,4.13c0,2.259,1.679,3.484,4.195,3.484
		C291.236,419.312,293.689,418.345,295.818,416.796"/>
	<path fill="#5A5B5B" d="M314.922,420.539c-0.646-1.161-0.969-2.646-0.969-4.452v-14.52h-5.484v-5.938h5.484v-5.937l6.97-3.033v8.97
		h8.582v5.938h-8.582v13.164c0,0.902,0.129,1.483,0.451,2.063c0.517,0.903,1.549,1.355,2.969,1.355c1.809,0,3.872-0.71,5.55-1.484
		l-0.581,6.066c-1.936,0.968-4.193,1.678-6.774,1.678C319.116,424.411,316.341,423.249,314.922,420.539"/>
	<path fill="#5A5B5B" d="M333.378,382.596v-5.937h11.229v23.229c2.646-2.517,5.612-4.774,9.613-4.774
		c3.033,0,5.421,1.097,6.905,3.033c1.226,1.612,1.871,3.807,1.871,6.389v13.551h4.193v5.808h-15.1v-5.808h3.871v-11.809
		c0-1.55-0.322-2.646-0.903-3.42c-0.71-0.904-1.807-1.355-3.161-1.355c-2.452,0-5.033,1.42-7.291,3.291v13.293h3.87v5.808h-15.1
		v-5.808h4.194v-35.491H333.378L333.378,382.596z"/>
	<path fill="#5A5B5B" d="M369.97,409.763c0-7.743,5.809-14.647,15.035-14.647c9.356,0,15.035,6.774,15.035,14.647
		c0,7.743-5.808,14.648-15.035,14.648C375.648,424.411,369.97,417.635,369.97,409.763 M392.812,409.763
		c0-5.162-3.228-8.775-7.809-8.775c-4.582,0-7.809,3.613-7.809,8.775s3.227,8.776,7.809,8.776S392.812,414.925,392.812,409.763"/>
	<path fill="#5A5B5B" d="M415.208,400.147c2.71-2.646,5.743-5.033,9.873-5.033c3.354,0,5.808,1.354,7.291,3.614
		c0.969,1.548,1.483,3.483,1.483,5.808v13.551h4.194v5.809h-15.1v-5.809h3.872v-11.809c0-1.162-0.193-2.193-0.581-2.903
		c-0.646-1.227-1.808-1.872-3.484-1.872c-2.452,0-5.033,1.42-7.292,3.291v13.293h3.872v5.808h-15.101v-5.808h4.194v-16.52h-4.194
		v-5.938h10.971L415.208,400.147L415.208,400.147z"/>
	<path fill="#AC1F23" d="M215.539,226.099c-4.977-8.616-8.382-17.709-10.322-26.942c-1.304-6.226-1.949-12.505-1.943-18.758
		c0.024-31.57,16.418-62.273,45.725-79.196c-27.352-15.758-62.128-16.905-91.433,0.014c-38.603,22.284-54.798,68.472-40.698,109.078
		c0.003,0.007,0.005,0.016,0.006,0.024c1.873,5.386,4.269,10.676,7.224,15.795c8.328,14.422,19.993,25.714,33.456,33.476
		c27.356,15.758,62.135,16.914,91.44-0.008h0.005C235.532,251.822,223.866,240.526,215.539,226.099"/>
	<g>
		<path fill="#AC1F23" d="M159.989,258.92c-13.574-7.565-25.403-18.685-33.94-32.984c-3.029-5.076-5.502-10.33-7.454-15.688
			c0-0.008-0.003-0.017-0.006-0.024c-3.204-8.81-4.969-17.906-5.376-26.982c-0.108,10.725,1.656,21.556,5.45,31.987
			c0.003,0.008,0.005,0.017,0.006,0.024c1.952,5.357,4.425,10.612,7.455,15.688c8.537,14.298,20.366,25.419,33.941,32.984
			c27.583,15.355,62.375,16.005,91.43-1.344h0.005c-1.48-0.823-2.936-1.698-4.372-2.606
			C218.985,274.814,186.228,273.526,159.989,258.92z"/>
	</g>
	<path fill="#FBD22C" d="M373.901,134.667c-25.249-43.731-81.167-58.713-124.896-33.464H249
		c-29.307,16.923-45.702,47.626-45.725,79.196c0.004-0.003,0.004-0.003,0.008-0.003c29.307-16.921,64.088-15.769,91.441-0.007
		c7.588,4.37,14.604,9.868,20.771,16.416c4.778,5.068,9.05,10.764,12.685,17.059c8.326,14.422,12.271,30.163,12.263,45.695
		c-0.006,8.732-1.263,17.387-3.696,25.707c19.636-23.13,36.723-49.854,44.671-75.856
		C389.43,185.442,387.532,158.278,373.901,134.667"/>
	<path fill="#103F5F" d="M328.179,213.864c-3.635-6.295-7.905-11.991-12.685-17.06c-6.167-6.547-13.182-12.045-20.77-16.415
		c-0.006,5.432-0.498,10.838-1.453,16.151c-4.604,25.575-20.01,49.033-44.273,63.043h-0.005
		c-29.304,16.92-64.084,15.765-91.44,0.006c-13.463-7.761-25.128-19.055-33.456-33.477c-2.955-5.119-5.351-10.408-7.224-15.795
		c8.061,25.699,24.956,52.052,44.347,74.902c31.952,37.661,70.67,65.807,87.778,65.807c17.102,0,55.801-28.131,87.746-65.76
		c2.435-8.322,3.69-16.976,3.696-25.709C340.449,244.027,336.504,228.286,328.179,213.864"/>
</g>
</svg>
