<?xml version="1.0" encoding="utf-8"?>
<!-- Generator: Adobe Illustrator 15.0.0, SVG Export Plug-In . SVG Version: 6.00 Build 0)  -->
<!DOCTYPE svg PUBLIC "-//W3C//DTD SVG 1.1//EN" "http://www.w3.org/Graphics/SVG/1.1/DTD/svg11.dtd">
<svg version="1.1" xmlns="http://www.w3.org/2000/svg" xmlns:xlink="http://www.w3.org/1999/xlink" x="0px" y="0px" width="128px"
	 height="128px" viewBox="0 0 128 128" enable-background="new 0 0 128 128" xml:space="preserve">
<g id="Layer_1" display="none">
	<path display="inline" fill="#5A5B5B" d="M51.664,68.908c-1.862-3.223-3.136-6.627-3.862-10.08
		c-0.487-2.33-0.729-4.679-0.726-7.018c0.009-11.812,6.143-23.299,17.107-29.63c-10.233-5.896-23.245-6.325-34.208,0.005
		C15.531,30.522,9.471,47.803,14.747,62.995c0.001,0.003,0.002,0.005,0.002,0.009c0.701,2.016,1.597,3.994,2.702,5.909
		c3.116,5.397,7.48,9.622,12.518,12.524c10.235,5.897,23.248,6.33,34.21-0.002h0.003C59.144,78.531,54.78,74.305,51.664,68.908"/>
	<path display="inline" fill="#D7D7D7" d="M110.913,34.7c-9.446-16.361-30.368-21.967-46.729-12.52h-0.001
		c-10.965,6.332-17.099,17.818-17.107,29.63c0.001-0.001,0.001-0.001,0.003-0.001c10.964-6.33,23.976-5.899,34.21-0.002
		c2.84,1.634,5.465,3.691,7.771,6.141c1.789,1.896,3.387,4.028,4.746,6.383c3.114,5.396,4.592,11.286,4.588,17.098
		c-0.002,3.267-0.473,6.504-1.384,9.617c7.347-8.654,13.739-18.652,16.714-28.381C116.723,53.697,116.014,43.534,110.913,34.7"/>
	<path display="inline" fill="#3A3A3A" d="M93.807,64.33c-1.359-2.354-2.957-4.486-4.746-6.382c-2.307-2.45-4.932-4.506-7.771-6.142
		c-0.001,2.033-0.186,4.055-0.541,6.043c-1.725,9.569-7.487,18.345-16.565,23.586H64.18c-10.963,6.332-23.976,5.899-34.21,0.002
		c-5.037-2.902-9.401-7.127-12.517-12.524c-1.106-1.915-2.002-3.894-2.703-5.909c3.016,9.615,9.337,19.475,16.591,28.025
		c11.955,14.088,26.441,24.619,32.842,24.619c6.397,0,20.878-10.524,32.828-24.604c0.911-3.113,1.382-6.351,1.384-9.617
		C98.398,75.616,96.921,69.727,93.807,64.33"/>
</g>
<g id="Layer_2">
	<path fill="#6D1011" d="M93.813,64.841c-3.132-5.424-7.521-9.671-12.583-12.588c-0.01,11.874-6.174,23.417-17.196,29.781l0,0
		c-11.022,6.365-24.103,5.931-34.391,0.003c-5.063-2.918-9.45-7.164-12.58-12.588c-1.113-1.925-2.015-3.916-2.719-5.94
		c3.033,9.665,9.388,19.575,16.677,28.17c12.017,14.158,26.58,24.744,33.014,24.746c6.432-0.002,20.986-10.576,33-24.732
		c0.914-3.127,1.387-6.385,1.389-9.664C98.429,76.186,96.944,70.266,93.813,64.841"/>
	<path fill="#AC1F23" d="M51.45,69.443c-3.129-5.424-4.615-11.304-4.611-17.147v-0.039c0-0.226,0.002-0.452,0.008-0.677
		c0.017-0.804,0.06-1.608,0.134-2.41c0.583-6.417,2.986-12.632,6.891-17.762c2.753-3.618,6.229-6.661,10.165-8.935
		c-6.809-3.921-14.887-5.407-22.644-4.175c-7.57,1.217-14.645,5.021-19.846,10.655c-5.465,5.928-8.699,13.754-9.059,21.807
		c-0.353,7.957,2.139,15.9,6.938,22.256c2.759,3.652,6.252,6.734,10.22,9.021c10.288,5.928,23.368,6.362,34.39-0.003l0,0
		C58.97,79.117,54.583,74.869,51.45,69.443"/>
	<path fill="#ED2124" d="M113.031,39.163c-2.554-6.176-6.889-11.557-12.414-15.32c-5.104-3.477-11.133-5.536-17.297-5.918
		c-2.949-0.182-5.922,0.017-8.819,0.596c-1.753,0.35-3.478,0.837-5.155,1.458c-0.932,0.343-1.846,0.727-2.74,1.149
		c-0.879,0.415-1.705,0.913-2.57,1.344c-9.405,5.43-17.186,16.019-17.196,29.785c0,0,0,0,0.002-0.001
		c11.023-6.362,24.103-5.93,34.39-0.002c0,0,0.131,0.075,0.27,0.158c0.748,0.439,1.476,0.907,2.189,1.401
		c1.437,0.999,2.797,2.107,4.064,3.315c5.508,5.249,9.188,12.327,10.301,19.855c0.248,1.67,0.369,3.357,0.369,5.047
		c-0.002,3.279-0.475,6.537-1.389,9.664c7.385-8.695,13.809-18.747,16.799-28.524c-0.01,0.031-0.023,0.061-0.033,0.094
		c0.105-0.316,0.211-0.631,0.307-0.949C116.424,54.738,116.045,46.49,113.031,39.163"/>
</g>
</svg>
