<?xml version="1.0" encoding="utf-8"?>
<!-- Generator: Adobe Illustrator 15.0.0, SVG Export Plug-In . SVG Version: 6.00 Build 0)  -->
<!DOCTYPE svg PUBLIC "-//W3C//DTD SVG 1.1//EN" "http://www.w3.org/Graphics/SVG/1.1/DTD/svg11.dtd">
<svg version="1.1" id="Layer_1" xmlns="http://www.w3.org/2000/svg" xmlns:xlink="http://www.w3.org/1999/xlink" x="0px" y="0px"
	 width="128px" height="128px" viewBox="0 0 128 128" enable-background="new 0 0 128 128" xml:space="preserve">
<path fill="#5A5B5B" d="M51.664,68.908c-1.862-3.223-3.136-6.627-3.862-10.08c-0.487-2.33-0.729-4.679-0.726-7.018
	c0.009-11.812,6.143-23.299,17.107-29.63c-10.233-5.896-23.245-6.325-34.208,0.005C15.531,30.522,9.471,47.803,14.747,62.995
	c0.001,0.003,0.002,0.005,0.002,0.009c0.701,2.016,1.597,3.994,2.702,5.909c3.116,5.397,7.48,9.622,12.518,12.524
	c10.235,5.897,23.248,6.33,34.21-0.002h0.003C59.144,78.531,54.78,74.305,51.664,68.908"/>
<path fill="#D7D7D7" d="M110.913,34.7c-9.446-16.361-30.368-21.967-46.729-12.52h-0.001c-10.965,6.332-17.099,17.818-17.107,29.63
	c0.001-0.001,0.001-0.001,0.003-0.001c10.964-6.33,23.976-5.899,34.21-0.002c2.84,1.634,5.465,3.691,7.771,6.141
	c1.789,1.896,3.387,4.028,4.746,6.383c3.114,5.396,4.592,11.286,4.588,17.098c-0.002,3.267-0.473,6.504-1.384,9.617
	c7.347-8.654,13.739-18.652,16.714-28.381C116.723,53.697,116.014,43.534,110.913,34.7"/>
<path fill="#3A3A3A" d="M93.807,64.33c-1.359-2.354-2.957-4.486-4.746-6.382c-2.307-2.45-4.932-4.506-7.771-6.142
	c-0.001,2.033-0.186,4.055-0.541,6.043c-1.725,9.569-7.487,18.345-16.565,23.586H64.18c-10.963,6.332-23.976,5.899-34.21,0.002
	c-5.037-2.902-9.401-7.127-12.517-12.524c-1.106-1.915-2.002-3.894-2.703-5.909c3.016,9.615,9.337,19.475,16.591,28.025
	c11.955,14.088,26.441,24.619,32.842,24.619c6.397,0,20.878-10.524,32.828-24.604c0.911-3.113,1.382-6.351,1.384-9.617
	C98.398,75.616,96.921,69.727,93.807,64.33"/>
</svg>
