<?xml version="1.0" encoding="utf-8"?>
<!-- Generator: Adobe Illustrator 15.0.0, SVG Export Plug-In . SVG Version: 6.00 Build 0)  -->
<!DOCTYPE svg PUBLIC "-//W3C//DTD SVG 1.1//EN" "http://www.w3.org/Graphics/SVG/1.1/DTD/svg11.dtd">
<svg version="1.1" xmlns="http://www.w3.org/2000/svg" xmlns:xlink="http://www.w3.org/1999/xlink" x="0px" y="0px" width="128px"
	 height="128px" viewBox="0 0 128 128" enable-background="new 0 0 128 128" xml:space="preserve">
<g id="Layer_1" display="none">
	<path display="inline" fill="#5A5B5B" d="M51.664,68.908c-1.862-3.223-3.136-6.627-3.862-10.08
		c-0.487-2.33-0.729-4.679-0.726-7.018c0.009-11.812,6.143-23.299,17.107-29.63c-10.233-5.896-23.245-6.325-34.208,0.005
		C15.531,30.522,9.471,47.803,14.747,62.995c0.001,0.003,0.002,0.005,0.002,0.009c0.701,2.016,1.597,3.994,2.702,5.909
		c3.116,5.397,7.48,9.622,12.518,12.524c10.235,5.897,23.248,6.33,34.21-0.002h0.003C59.144,78.531,54.78,74.305,51.664,68.908"/>
	<path display="inline" fill="#D7D7D7" d="M110.913,34.7c-9.446-16.361-30.368-21.967-46.729-12.52h-0.001
		c-10.965,6.332-17.099,17.818-17.107,29.63c0.001-0.001,0.001-0.001,0.003-0.001c10.964-6.33,23.976-5.899,34.21-0.002
		c2.84,1.634,5.465,3.691,7.771,6.141c1.789,1.896,3.387,4.028,4.746,6.383c3.114,5.396,4.592,11.286,4.588,17.098
		c-0.002,3.267-0.473,6.504-1.384,9.617c7.347-8.654,13.739-18.652,16.714-28.381C116.723,53.697,116.014,43.534,110.913,34.7"/>
	<path display="inline" fill="#3A3A3A" d="M93.807,64.33c-1.359-2.354-2.957-4.486-4.746-6.382c-2.307-2.45-4.932-4.506-7.771-6.142
		c-0.001,2.033-0.186,4.055-0.541,6.043c-1.725,9.569-7.487,18.345-16.565,23.586H64.18c-10.963,6.332-23.976,5.899-34.21,0.002
		c-5.037-2.902-9.401-7.127-12.517-12.524c-1.106-1.915-2.002-3.894-2.703-5.909c3.016,9.615,9.337,19.475,16.591,28.025
		c11.955,14.088,26.441,24.619,32.842,24.619c6.397,0,20.878-10.524,32.828-24.604c0.911-3.113,1.382-6.351,1.384-9.617
		C98.398,75.616,96.921,69.727,93.807,64.33"/>
</g>
<g id="Layer_2" display="none">
	<path display="inline" fill="#6D1011" d="M93.813,64.841c-3.132-5.424-7.521-9.671-12.583-12.588
		c-0.01,11.874-6.174,23.417-17.196,29.781l0,0c-11.022,6.365-24.103,5.931-34.391,0.003c-5.063-2.918-9.45-7.164-12.58-12.588
		c-1.113-1.925-2.015-3.916-2.719-5.94c3.033,9.665,9.388,19.575,16.677,28.17c12.017,14.158,26.58,24.744,33.014,24.746
		c6.432-0.002,20.986-10.576,33-24.732c0.914-3.127,1.387-6.385,1.389-9.664C98.429,76.186,96.944,70.266,93.813,64.841"/>
	<path display="inline" fill="#AC1F23" d="M51.45,69.443c-3.129-5.424-4.615-11.304-4.611-17.147v-0.039
		c0-0.226,0.002-0.452,0.008-0.677c0.017-0.804,0.06-1.608,0.134-2.41c0.583-6.417,2.986-12.632,6.891-17.762
		c2.753-3.618,6.229-6.661,10.165-8.935c-6.809-3.921-14.887-5.407-22.644-4.175c-7.57,1.217-14.645,5.021-19.846,10.655
		c-5.465,5.928-8.699,13.754-9.059,21.807c-0.353,7.957,2.139,15.9,6.938,22.256c2.759,3.652,6.252,6.734,10.22,9.021
		c10.288,5.928,23.368,6.362,34.39-0.003l0,0C58.97,79.117,54.583,74.869,51.45,69.443"/>
	<path display="inline" fill="#ED2124" d="M113.031,39.163c-2.554-6.176-6.889-11.557-12.414-15.32
		c-5.104-3.477-11.133-5.536-17.297-5.918c-2.949-0.182-5.922,0.017-8.819,0.596c-1.753,0.35-3.478,0.837-5.155,1.458
		c-0.932,0.343-1.846,0.727-2.74,1.149c-0.879,0.415-1.705,0.913-2.57,1.344c-9.405,5.43-17.186,16.019-17.196,29.785
		c0,0,0,0,0.002-0.001c11.023-6.362,24.103-5.93,34.39-0.002c0,0,0.131,0.075,0.27,0.158c0.748,0.439,1.476,0.907,2.189,1.401
		c1.437,0.999,2.797,2.107,4.064,3.315c5.508,5.249,9.188,12.327,10.301,19.855c0.248,1.67,0.369,3.357,0.369,5.047
		c-0.002,3.279-0.475,6.537-1.389,9.664c7.385-8.695,13.809-18.747,16.799-28.524c-0.01,0.031-0.023,0.061-0.033,0.094
		c0.105-0.316,0.211-0.631,0.307-0.949C116.424,54.738,116.045,46.49,113.031,39.163"/>
</g>
<g id="Layer_3" display="none">
	<path display="inline" fill="#103F5F" d="M94.523,65.413c-3.205-5.55-7.694-9.896-12.877-12.882
		c-0.009,12.151-6.318,23.965-17.599,30.477v0.002c-11.28,6.513-24.667,6.068-35.194,0.002c-5.182-2.986-9.67-7.332-12.876-12.883
		c-1.139-1.971-2.06-4.006-2.78-6.079c3.102,9.891,9.605,20.034,17.066,28.829c12.298,14.492,27.201,25.324,33.786,25.326
		c6.582-0.002,21.475-10.824,33.771-25.31c0.936-3.202,1.42-6.535,1.422-9.894C99.247,77.023,97.728,70.965,94.523,65.413"/>
	<path display="inline" fill="#165476" d="M51.169,70.123c-3.203-5.55-4.723-11.569-4.719-17.549v-0.04
		c0-0.231,0.002-0.462,0.007-0.693c0.017-0.823,0.062-1.646,0.137-2.466c0.597-6.568,3.057-12.928,7.053-18.178
		c2.817-3.702,6.375-6.816,10.403-9.144c-6.969-4.013-15.234-5.533-23.175-4.272c-7.748,1.246-14.987,5.138-20.311,10.905
		c-5.592,6.066-8.903,14.075-9.27,22.316c-0.362,8.143,2.189,16.273,7.099,22.775c2.825,3.74,6.399,6.895,10.459,9.234
		c10.528,6.066,23.914,6.511,35.195-0.002v-0.002C58.866,80.023,54.376,75.676,51.169,70.123"/>
	<path display="inline" fill="#00668C" d="M114.19,39.135c-2.612-6.32-7.049-11.828-12.705-15.679
		c-5.223-3.559-11.392-5.666-17.699-6.057c-3.02-0.186-6.061,0.018-9.025,0.61c-1.795,0.358-3.561,0.857-5.277,1.493
		c-0.953,0.352-1.888,0.744-2.805,1.176c-0.898,0.424-1.744,0.934-2.629,1.375c-9.625,5.558-17.589,16.394-17.599,30.481
		c0,0,0,0,0.001-0.001c11.283-6.51,24.667-6.069,35.195-0.002c0,0,0.133,0.076,0.275,0.161c0.765,0.45,1.51,0.928,2.24,1.434
		c1.471,1.023,2.862,2.158,4.158,3.394c5.639,5.372,9.402,12.615,10.544,20.318c0.253,1.709,0.378,3.438,0.377,5.164
		c-0.001,3.358-0.485,6.691-1.421,9.894c7.557-8.901,14.133-19.187,17.191-29.194c-0.01,0.032-0.022,0.063-0.034,0.096
		c0.107-0.323,0.216-0.645,0.313-0.971C117.664,55.074,117.274,46.632,114.19,39.135"/>
</g>
<g id="Layer_4">
	<path fill="#E2941F" d="M94.575,65.412c-3.205-5.551-7.694-9.897-12.877-12.883C81.689,64.68,75.379,76.494,64.1,83.006v0.002
		c-11.28,6.513-24.666,6.068-35.194,0.002c-5.183-2.986-9.671-7.332-12.875-12.883c-1.139-1.971-2.061-4.006-2.781-6.079
		c3.103,9.891,9.605,20.034,17.067,28.829c12.298,14.492,27.2,25.324,33.786,25.326c6.582-0.002,21.475-10.824,33.771-25.31
		c0.937-3.202,1.42-6.535,1.422-9.894C99.299,77.021,97.779,70.963,94.575,65.412"/>
	<path fill="#FAA222" d="M51.222,70.121c-3.204-5.55-4.724-11.569-4.72-17.549v-0.04c0-0.231,0.003-0.462,0.007-0.693
		c0.018-0.823,0.063-1.646,0.137-2.466c0.598-6.568,3.056-12.928,7.053-18.178c2.817-3.702,6.373-6.816,10.403-9.144
		c-6.969-4.013-15.234-5.533-23.174-4.272c-7.749,1.246-14.987,5.138-20.31,10.905C15.024,34.75,11.712,42.759,11.347,51
		c-0.363,8.143,2.189,16.273,7.099,22.775c2.824,3.74,6.398,6.895,10.46,9.234c10.528,6.066,23.914,6.511,35.194-0.002v-0.002
		C58.918,80.021,54.428,75.674,51.222,70.121"/>
	<path fill="#FBD22C" d="M114.241,39.133c-2.612-6.32-7.048-11.828-12.704-15.679c-5.223-3.559-11.392-5.666-17.699-6.057
		c-3.02-0.186-6.061,0.018-9.025,0.61c-1.795,0.358-3.561,0.857-5.277,1.493c-0.951,0.352-1.889,0.744-2.806,1.176
		c-0.897,0.424-1.743,0.934-2.628,1.375c-9.625,5.558-17.589,16.394-17.6,30.481c0,0,0.001,0,0.003-0.001
		c11.28-6.51,24.667-6.069,35.194-0.002c0,0,0.133,0.076,0.275,0.161c0.765,0.45,1.51,0.928,2.24,1.434
		c1.471,1.023,2.862,2.158,4.158,3.394c5.637,5.372,9.402,12.615,10.544,20.318c0.253,1.709,0.379,3.438,0.377,5.164
		c-0.002,3.358-0.485,6.691-1.422,9.894c7.558-8.901,14.134-19.187,17.192-29.194c-0.01,0.032-0.023,0.063-0.035,0.096
		c0.108-0.323,0.217-0.645,0.315-0.971C117.716,55.072,117.326,46.63,114.241,39.133"/>
</g>
</svg>
