<?xml version="1.0" encoding="utf-8"?>
<!-- Generator: Adobe Illustrator 15.0.0, SVG Export Plug-In . SVG Version: 6.00 Build 0)  -->
<!DOCTYPE svg PUBLIC "-//W3C//DTD SVG 1.1//EN" "http://www.w3.org/Graphics/SVG/1.1/DTD/svg11.dtd">
<svg version="1.1" id="Layer_1" xmlns="http://www.w3.org/2000/svg" xmlns:xlink="http://www.w3.org/1999/xlink" x="0px" y="0px"
	 width="98px" height="123px" viewBox="0 0 98 123" enable-background="new 0 0 98 123" xml:space="preserve">
<g>
	<defs>
		<rect id="SVGID_1_" x="0.094" y="-0.498" width="98" height="122.999"/>
	</defs>
	<clipPath id="SVGID_2_">
		<use xlink:href="#SVGID_1_"  overflow="visible"/>
	</clipPath>
	<path clip-path="url(#SVGID_2_)" fill="none" stroke="#D1D1D1" stroke-width="0.25" stroke-miterlimit="10" d="M24.124,110.411
		L24.124,110.411c-0.229,0-0.447-0.014-0.67-0.037c-2.731-0.336-4.849-2.66-4.849-5.476H7.562c0,9.141,7.415,16.562,16.562,16.562
		h14.965c9.147,0,16.561-7.421,16.561-16.562H44.608c0,2.815-2.117,5.14-4.848,5.476c-0.224,0.023-0.442,0.037-0.671,0.037H24.124z"
		/>
	<path clip-path="url(#SVGID_2_)" fill="none" stroke="#D1D1D1" stroke-width="0.25" stroke-miterlimit="10" d="M24.124,110.411
		L24.124,110.411z"/>
	<path clip-path="url(#SVGID_2_)" fill="none" stroke="#D1D1D1" stroke-width="0.25" stroke-miterlimit="10" d="M62.489,109.741
		L62.489,109.741c0.111,0.196,0.208,0.395,0.297,0.609c1.083,2.526,0.127,5.521-2.317,6.935l5.52,9.562
		c7.925-4.576,10.634-14.706,6.063-22.62c-1.346-2.338-6.134-10.625-7.485-12.965c-4.57-7.924-14.7-10.634-22.619-6.059l5.518,9.563
		c2.443-1.413,5.517-0.743,7.17,1.457c0.136,0.182,0.255,0.366,0.374,0.562L62.489,109.741z"/>
	<path clip-path="url(#SVGID_2_)" fill="none" stroke="#D1D1D1" stroke-width="0.25" stroke-miterlimit="10" d="M62.489,109.741
		L62.489,109.741z"/>
	<path clip-path="url(#SVGID_2_)" fill="none" stroke="#D1D1D1" stroke-width="0.25" stroke-miterlimit="10" d="M42.728,76.859
		L42.728,76.859c0.112-0.196,0.239-0.381,0.374-0.561c1.647-2.202,4.728-2.872,7.17-1.459l5.519-9.563
		c-7.925-4.575-18.049-1.866-22.625,6.061c-1.345,2.325-6.133,10.625-7.479,12.953c-4.577,7.924-1.861,18.054,6.058,22.631
		l5.524-9.563c-2.443-1.413-3.4-4.408-2.322-6.944c0.087-0.205,0.185-0.403,0.303-0.6L42.728,76.859z"/>
	<path clip-path="url(#SVGID_2_)" fill="none" stroke="#D1D1D1" stroke-width="0.25" stroke-miterlimit="10" d="M42.728,76.859
		L42.728,76.859z"/>
	<path clip-path="url(#SVGID_2_)" fill="none" stroke="#D1D1D1" stroke-width="0.25" stroke-miterlimit="10" d="M112.008,71.834
		L112.008,71.834c0.112-0.196,0.208-0.396,0.297-0.6c1.083-2.524,0.127-5.531-2.321-6.945l5.523-9.558
		c7.919,4.572,10.635,14.703,6.061,22.626c-1.349,2.328-6.137,10.627-7.482,12.953c-4.57,7.926-14.7,10.636-22.625,6.07l5.523-9.562
		c2.443,1.402,5.518,0.731,7.172-1.471c0.129-0.167,0.254-0.352,0.367-0.549L112.008,71.834z"/>
	<path clip-path="url(#SVGID_2_)" fill="none" stroke="#D1D1D1" stroke-width="0.25" stroke-miterlimit="10" d="M112.008,71.834
		L112.008,71.834z"/>
	<path clip-path="url(#SVGID_2_)" fill="none" stroke="#D1D1D1" stroke-width="0.25" stroke-miterlimit="10" d="M92.246,104.725
		L92.246,104.725c0.11,0.199,0.238,0.382,0.372,0.562c1.648,2.203,4.725,2.874,7.167,1.459l5.524,9.563
		c-7.926,4.577-18.05,1.854-22.627-6.059c-1.345-2.34-6.134-10.625-7.479-12.965c-4.578-7.926-1.861-18.045,6.058-22.62l5.524,9.562
		c-2.443,1.401-3.4,4.41-2.323,6.934c0.088,0.205,0.186,0.402,0.299,0.599L92.246,104.725z"/>
	<path clip-path="url(#SVGID_2_)" fill="none" stroke="#D1D1D1" stroke-width="0.25" stroke-miterlimit="10" d="M92.246,104.725
		L92.246,104.725z"/>
	<path clip-path="url(#SVGID_2_)" fill="none" stroke="#D1D1D1" stroke-width="0.25" stroke-miterlimit="10" d="M73.643,71.163
		L73.643,71.163c-0.23,0-0.447,0.015-0.67,0.05c-2.731,0.324-4.85,2.648-4.85,5.476H57.08c0-9.152,7.415-16.562,16.562-16.562
		h14.965c9.147,0,16.562,7.409,16.562,16.562H94.126c0-2.827-2.116-5.151-4.848-5.476c-0.223-0.035-0.448-0.05-0.671-0.05H73.643z"
		/>
	<path clip-path="url(#SVGID_2_)" fill="none" stroke="#D1D1D1" stroke-width="0.25" stroke-miterlimit="10" d="M73.643,71.163
		L73.643,71.163z"/>
	<path clip-path="url(#SVGID_2_)" fill="none" stroke="#D1D1D1" stroke-width="0.25" stroke-miterlimit="10" d="M5.946,45.142
		L5.946,45.142c-0.112,0.197-0.238,0.383-0.368,0.557c-1.653,2.201-4.729,2.871-7.171,1.463l-5.524,9.558
		c7.925,4.575,18.055,1.866,22.626-6.058c1.346-2.334,6.133-10.627,7.48-12.959c4.576-7.92,1.86-18.051-6.06-22.628l-5.523,9.564
		c2.443,1.414,3.4,4.408,2.322,6.94c-0.088,0.203-0.184,0.408-0.297,0.605L5.946,45.142z"/>
	<path clip-path="url(#SVGID_2_)" fill="none" stroke="#D1D1D1" stroke-width="0.25" stroke-miterlimit="10" d="M5.946,45.142
		L5.946,45.142z"/>
	<path clip-path="url(#SVGID_2_)" fill="none" stroke="#D1D1D1" stroke-width="0.25" stroke-miterlimit="10" d="M24.55,11.581
		L24.55,11.581c0.229,0,0.447,0.02,0.669,0.043c2.731,0.329,4.85,2.661,4.85,5.482l11.042-0.002
		c0.001-9.145-7.414-16.559-16.562-16.559H9.584C0.437,0.537-6.978,7.952-6.978,17.105l11.043-0.002c0-2.821,2.118-5.149,4.848-5.48
		c0.224-0.025,0.449-0.043,0.672-0.043H24.55z"/>
	<path clip-path="url(#SVGID_2_)" fill="none" stroke="#D1D1D1" stroke-width="0.25" stroke-miterlimit="10" d="M24.55,11.581
		L24.55,11.581z"/>
	<path clip-path="url(#SVGID_2_)" fill="none" stroke="#D1D1D1" stroke-width="0.25" stroke-miterlimit="10" d="M-13.815,12.249
		L-13.815,12.249c-0.113-0.196-0.208-0.395-0.298-0.598c-1.083-2.53-0.126-5.532,2.322-6.941l-5.523-9.561
		c-7.92,4.569-10.634,14.7-6.058,22.625c1.345,2.327,6.134,10.626,7.48,12.954c4.569,7.926,14.699,10.641,22.625,6.064L1.208,27.23
		c-2.442,1.414-5.517,0.741-7.171-1.459c-0.13-0.179-0.255-0.366-0.367-0.563L-13.815,12.249z"/>
	<path clip-path="url(#SVGID_2_)" fill="none" stroke="#D1D1D1" stroke-width="0.25" stroke-miterlimit="10" d="M55.361,13.057
		L55.361,13.057c-0.11-0.196-0.237-0.379-0.374-0.56c-1.646-2.202-4.727-2.873-7.168-1.459l-5.52-9.562
		c7.925-4.577,18.049-1.862,22.625,6.064c1.346,2.334,6.136,10.625,7.479,12.959c4.578,7.92,1.862,18.048-6.063,22.62l-5.518-9.558
		c2.443-1.414,3.4-4.414,2.322-6.939c-0.087-0.21-0.185-0.407-0.303-0.604L55.361,13.057z"/>
	<path clip-path="url(#SVGID_2_)" fill="none" stroke="#D1D1D1" stroke-width="0.25" stroke-miterlimit="10" d="M55.361,13.057
		L55.361,13.057z"/>
	<path clip-path="url(#SVGID_2_)" fill="none" stroke="#D1D1D1" stroke-width="0.25" stroke-miterlimit="10" d="M73.965,46.613
		L73.965,46.613c0.224,0.008,0.447-0.015,0.669-0.036c2.733-0.33,4.851-2.66,4.852-5.482h11.041
		c0.001,9.148-7.415,16.562-16.562,16.562c-2.697-0.002-12.273,0-14.965,0c-9.147,0-16.562-7.414-16.562-16.562H53.48
		c0,2.822,2.117,5.152,4.848,5.482c0.225,0.023,0.443,0.036,0.673,0.036H73.965z"/>
	<path clip-path="url(#SVGID_2_)" fill="none" stroke="#D1D1D1" stroke-width="0.25" stroke-miterlimit="10" d="M73.965,46.613
		L73.965,46.613z"/>
	<path clip-path="url(#SVGID_2_)" fill="none" stroke="#D1D1D1" stroke-width="0.25" stroke-miterlimit="10" d="M35.6,45.944
		L35.6,45.944c-0.112,0.205-0.208,0.401-0.298,0.605c-1.081,2.532-0.126,5.532,2.317,6.94l-5.518,9.559
		c-7.925-4.566-10.634-14.697-6.064-22.621c1.346-2.334,6.134-10.626,7.48-12.96c4.576-7.919,14.706-10.635,22.625-6.058
		l-5.518,9.556c-2.443-1.407-5.516-0.737-7.172,1.465c-0.134,0.179-0.255,0.36-0.372,0.561L35.6,45.944z"/>
	<path clip-path="url(#SVGID_2_)" fill="none" stroke="#D1D1D1" stroke-width="0.25" stroke-miterlimit="10" d="M35.6,45.944
		L35.6,45.944z"/>
	<path clip-path="url(#SVGID_2_)" fill="none" stroke="#D1D1D1" stroke-width="0.25" stroke-miterlimit="10" d="M14.006,71.834
		L14.006,71.834c0.112-0.196,0.208-0.396,0.297-0.6c1.078-2.524,0.127-5.531-2.322-6.945l5.524-9.558
		c7.919,4.572,10.634,14.703,6.058,22.626c-1.346,2.328-6.134,10.627-7.48,12.953c-4.57,7.926-14.7,10.636-22.625,6.07l5.524-9.562
		c2.443,1.402,5.517,0.731,7.171-1.471c0.129-0.167,0.255-0.352,0.368-0.549L14.006,71.834z"/>
	<path clip-path="url(#SVGID_2_)" fill="none" stroke="#D1D1D1" stroke-width="0.25" stroke-miterlimit="10" d="M14.006,71.834
		L14.006,71.834z"/>
	<path clip-path="url(#SVGID_2_)" fill="none" stroke="#D1D1D1" stroke-width="0.25" stroke-miterlimit="10" d="M-5.756,104.725
		L-5.756,104.725c0.111,0.199,0.239,0.382,0.367,0.562c1.654,2.203,4.729,2.874,7.172,1.459l5.524,9.563
		c-7.925,4.577-18.055,1.854-22.626-6.059c-1.345-2.34-6.134-10.625-7.48-12.965c-4.577-7.926-1.86-18.045,6.059-22.62l5.524,9.562
		c-2.449,1.401-3.4,4.41-2.323,6.934c0.088,0.205,0.186,0.402,0.299,0.599L-5.756,104.725z"/>
	<path clip-path="url(#SVGID_2_)" fill="none" stroke="#D1D1D1" stroke-width="0.25" stroke-miterlimit="10" d="M-24.359,71.163
		L-24.359,71.163c-0.23,0-0.447,0.015-0.67,0.05c-2.731,0.324-4.849,2.648-4.849,5.476h-11.043c0-9.152,7.415-16.562,16.562-16.562
		h14.965c9.147,0,16.562,7.409,16.562,16.562H-3.875c0-2.827-2.117-5.151-4.848-5.476c-0.223-0.035-0.448-0.05-0.671-0.05H-24.359z"
		/>
	<path clip-path="url(#SVGID_2_)" fill="none" stroke="#D1D1D1" stroke-width="0.25" stroke-miterlimit="10" d="M122.126,110.411
		L122.126,110.411c-0.225,0-0.447-0.014-0.67-0.037c-2.73-0.336-4.85-2.66-4.85-5.476h-11.043c0,9.141,7.416,16.562,16.562,16.562
		h14.965c9.146,0,16.562-7.421,16.562-16.562H142.61c0,2.815-2.117,5.14-4.849,5.476c-0.224,0.023-0.441,0.037-0.671,0.037H122.126z
		"/>
	<path clip-path="url(#SVGID_2_)" fill="none" stroke="#D1D1D1" stroke-width="0.25" stroke-miterlimit="10" d="M122.126,110.411
		L122.126,110.411z"/>
	<path clip-path="url(#SVGID_2_)" fill="none" stroke="#D1D1D1" stroke-width="0.25" stroke-miterlimit="10" d="M160.491,109.741
		L160.491,109.741c0.112,0.196,0.209,0.395,0.297,0.609c1.084,2.526,0.127,5.521-2.317,6.935l5.52,9.562
		c7.925-4.576,10.634-14.706,6.063-22.62c-1.346-2.338-6.133-10.625-7.485-12.965c-4.57-7.924-14.7-10.634-22.62-6.059l5.52,9.563
		c2.442-1.413,5.517-0.743,7.169,1.457c0.137,0.182,0.257,0.366,0.375,0.562L160.491,109.741z"/>
	<path clip-path="url(#SVGID_2_)" fill="none" stroke="#D1D1D1" stroke-width="0.25" stroke-miterlimit="10" d="M160.491,109.741
		L160.491,109.741z"/>
	<path clip-path="url(#SVGID_2_)" fill="none" stroke="#D1D1D1" stroke-width="0.25" stroke-miterlimit="10" d="M140.729,76.859
		L140.729,76.859c0.112-0.196,0.238-0.381,0.373-0.561c1.648-2.202,4.729-2.872,7.172-1.459l5.518-9.563
		c-7.925-4.575-18.049-1.866-22.626,6.061c-1.345,2.325-6.133,10.625-7.479,12.953c-4.576,7.924-1.86,18.054,6.064,22.631
		l5.519-9.563c-2.443-1.413-3.399-4.408-2.322-6.944c0.087-0.205,0.186-0.403,0.304-0.6L140.729,76.859z"/>
	<path clip-path="url(#SVGID_2_)" fill="none" stroke="#D1D1D1" stroke-width="0.25" stroke-miterlimit="10" d="M140.729,76.859
		L140.729,76.859z"/>
	<path clip-path="url(#SVGID_2_)" fill="none" stroke="#D1D1D1" stroke-width="0.25" stroke-miterlimit="10" d="M210.01,71.834
		L210.01,71.834c0.112-0.196,0.208-0.396,0.297-0.6c1.083-2.524,0.127-5.531-2.319-6.945l5.521-9.558
		c7.924,4.572,10.635,14.703,6.064,22.626c-1.353,2.328-6.141,10.627-7.486,12.953c-4.57,7.926-14.7,10.636-22.625,6.07l5.523-9.562
		c2.443,1.402,5.518,0.731,7.172-1.471c0.129-0.167,0.255-0.352,0.367-0.549L210.01,71.834z"/>
	<path clip-path="url(#SVGID_2_)" fill="none" stroke="#D1D1D1" stroke-width="0.25" stroke-miterlimit="10" d="M210.01,71.834
		L210.01,71.834z"/>
	<path clip-path="url(#SVGID_2_)" fill="none" stroke="#D1D1D1" stroke-width="0.25" stroke-miterlimit="10" d="M190.248,104.725
		L190.248,104.725c0.111,0.199,0.239,0.382,0.372,0.562c1.649,2.203,4.724,2.874,7.166,1.459l5.525,9.563
		c-7.926,4.577-18.05,1.854-22.627-6.059c-1.344-2.34-6.134-10.625-7.479-12.965c-4.578-7.926-1.861-18.045,6.058-22.62l5.524,9.562
		c-2.443,1.401-3.4,4.41-2.323,6.934c0.089,0.205,0.187,0.402,0.305,0.599L190.248,104.725z"/>
	<path clip-path="url(#SVGID_2_)" fill="none" stroke="#D1D1D1" stroke-width="0.25" stroke-miterlimit="10" d="M190.248,104.725
		L190.248,104.725z"/>
	<path clip-path="url(#SVGID_2_)" fill="none" stroke="#D1D1D1" stroke-width="0.25" stroke-miterlimit="10" d="M171.645,71.163
		L171.645,71.163c-0.229,0-0.447,0.015-0.671,0.05c-2.73,0.324-4.848,2.648-4.848,5.476h-11.044c0-9.152,7.415-16.562,16.562-16.562
		h14.965c9.147,0,16.562,7.409,16.562,16.562h-11.042c0-2.827-2.118-5.151-4.849-5.476c-0.223-0.035-0.448-0.05-0.671-0.05H171.645z
		"/>
	<path clip-path="url(#SVGID_2_)" fill="none" stroke="#D1D1D1" stroke-width="0.25" stroke-miterlimit="10" d="M171.645,71.163
		L171.645,71.163z"/>
	<path clip-path="url(#SVGID_2_)" fill="none" stroke="#D1D1D1" stroke-width="0.25" stroke-miterlimit="10" d="M103.948,45.142
		L103.948,45.142c-0.112,0.197-0.238,0.383-0.368,0.557c-1.653,2.201-4.729,2.871-7.171,1.463l-5.524,9.558
		c7.925,4.575,18.056,1.866,22.626-6.058c1.347-2.334,6.133-10.627,7.483-12.959c4.573-7.92,1.857-18.051-6.063-22.628l-5.522,9.564
		c2.448,1.414,3.405,4.408,2.321,6.94c-0.088,0.203-0.184,0.408-0.297,0.605L103.948,45.142z"/>
	<path clip-path="url(#SVGID_2_)" fill="none" stroke="#D1D1D1" stroke-width="0.25" stroke-miterlimit="10" d="M103.948,45.142
		L103.948,45.142z"/>
	<path clip-path="url(#SVGID_2_)" fill="none" stroke="#D1D1D1" stroke-width="0.25" stroke-miterlimit="10" d="M122.552,11.581
		L122.552,11.581c0.229,0,0.447,0.02,0.67,0.043c2.73,0.329,4.85,2.661,4.85,5.482l11.041-0.002
		c0.002-9.145-7.414-16.559-16.562-16.559h-14.965c-9.147-0.008-16.562,7.407-16.562,16.561l11.044-0.002
		c0-2.821,2.117-5.149,4.848-5.48c0.225-0.025,0.449-0.043,0.672-0.043H122.552z"/>
	<path clip-path="url(#SVGID_2_)" fill="none" stroke="#D1D1D1" stroke-width="0.25" stroke-miterlimit="10" d="M122.552,11.581
		L122.552,11.581z"/>
	<path clip-path="url(#SVGID_2_)" fill="none" stroke="#D1D1D1" stroke-width="0.25" stroke-miterlimit="10" d="M84.187,12.249
		L84.187,12.249c-0.113-0.196-0.208-0.395-0.298-0.598c-1.077-2.53-0.12-5.532,2.321-6.941l-5.522-9.561
		c-7.92,4.569-10.634,14.7-6.059,22.625c1.346,2.327,6.135,10.626,7.48,12.954c4.575,7.926,14.699,10.641,22.625,6.064L99.21,27.23
		c-2.442,1.414-5.518,0.741-7.167-1.459c-0.134-0.179-0.26-0.366-0.372-0.563L84.187,12.249z"/>
	<path clip-path="url(#SVGID_2_)" fill="none" stroke="#D1D1D1" stroke-width="0.25" stroke-miterlimit="10" d="M84.187,12.249
		L84.187,12.249z"/>
	<path clip-path="url(#SVGID_2_)" fill="none" stroke="#D1D1D1" stroke-width="0.25" stroke-miterlimit="10" d="M153.364,13.057
		L153.364,13.057c-0.111-0.196-0.238-0.379-0.374-0.56c-1.647-2.202-4.727-2.873-7.17-1.459l-5.519-9.562
		c7.924-4.577,18.049-1.862,22.623,6.064c1.348,2.334,6.137,10.625,7.48,12.959c4.577,7.92,1.861,18.048-6.064,22.62l-5.518-9.558
		c2.443-1.414,3.4-4.414,2.322-6.939c-0.087-0.21-0.185-0.407-0.303-0.604L153.364,13.057z"/>
	<path clip-path="url(#SVGID_2_)" fill="none" stroke="#D1D1D1" stroke-width="0.25" stroke-miterlimit="10" d="M153.364,13.057
		L153.364,13.057z"/>
	<path clip-path="url(#SVGID_2_)" fill="none" stroke="#D1D1D1" stroke-width="0.25" stroke-miterlimit="10" d="M171.967,46.613
		L171.967,46.613c0.224,0.008,0.448-0.015,0.67-0.036c2.733-0.33,4.85-2.66,4.851-5.482h11.041
		c0.002,9.148-7.416,16.562-16.562,16.562c-2.69-0.002-12.274,0-14.965,0c-9.147,0-16.562-7.414-16.562-16.562h11.041
		c0,2.822,2.119,5.152,4.85,5.482c0.225,0.023,0.441,0.036,0.672,0.036H171.967z"/>
	<path clip-path="url(#SVGID_2_)" fill="none" stroke="#D1D1D1" stroke-width="0.25" stroke-miterlimit="10" d="M171.967,46.613
		L171.967,46.613z"/>
	<path clip-path="url(#SVGID_2_)" fill="none" stroke="#D1D1D1" stroke-width="0.25" stroke-miterlimit="10" d="M133.603,45.944
		L133.603,45.944c-0.113,0.205-0.208,0.401-0.299,0.605c-1.081,2.532-0.125,5.532,2.317,6.94l-5.519,9.559
		c-7.924-4.566-10.635-14.697-6.063-22.621c1.347-2.334,6.134-10.626,7.485-12.96c4.57-7.919,14.701-10.635,22.619-6.058
		l-5.519,9.556c-2.442-1.407-5.516-0.737-7.171,1.465c-0.134,0.179-0.255,0.36-0.372,0.561L133.603,45.944z"/>
	<path clip-path="url(#SVGID_2_)" fill="none" stroke="#D1D1D1" stroke-width="0.25" stroke-miterlimit="10" d="M133.603,45.944
		L133.603,45.944z"/>
	<path clip-path="url(#SVGID_2_)" fill="none" stroke="#D1D1D1" stroke-width="0.25" stroke-miterlimit="10" d="M62.489-13.252
		L62.489-13.252c0.111,0.197,0.208,0.401,0.297,0.604c1.083,2.532,0.127,5.527-2.317,6.94l5.52,9.562
		c7.925-4.575,10.634-14.699,6.063-22.625c-1.346-2.332-6.134-10.626-7.485-12.96c-4.57-7.917-14.7-10.633-22.619-6.063l5.518,9.563
		c2.443-1.408,5.517-0.737,7.17,1.463c0.136,0.181,0.255,0.36,0.374,0.562L62.489-13.252z"/>
	<path clip-path="url(#SVGID_2_)" fill="none" stroke="#D1D1D1" stroke-width="0.25" stroke-miterlimit="10" d="M160.491-13.252
		L160.491-13.252c0.112,0.197,0.209,0.401,0.297,0.604c1.084,2.532,0.127,5.527-2.317,6.94l5.52,9.562
		c7.925-4.575,10.634-14.699,6.063-22.625c-1.346-2.332-6.133-10.626-7.485-12.96c-4.57-7.917-14.7-10.633-22.62-6.063l5.52,9.563
		c2.442-1.408,5.517-0.737,7.169,1.463c0.137,0.181,0.257,0.36,0.375,0.562L160.491-13.252z"/>
	<path clip-path="url(#SVGID_2_)" fill="none" stroke="#D1D1D1" stroke-width="0.25" stroke-miterlimit="10" d="M-13.815,135.248
		L-13.815,135.248c-0.113-0.197-0.208-0.396-0.298-0.598c-1.083-2.537-0.126-5.533,2.322-6.947l-5.523-9.562
		c-7.92,4.575-10.634,14.705-6.058,22.632c1.345,2.325,6.134,10.625,7.48,12.954c4.569,7.925,14.699,10.635,22.625,6.057
		l-5.525-9.562c-2.442,1.414-5.517,0.741-7.171-1.459c-0.13-0.179-0.255-0.365-0.367-0.562L-13.815,135.248z"/>
	<path clip-path="url(#SVGID_2_)" fill="none" stroke="#D1D1D1" stroke-width="0.25" stroke-miterlimit="10" d="M55.361,136.05
		L55.361,136.05c-0.11-0.196-0.237-0.379-0.374-0.56c-1.646-2.203-4.727-2.873-7.168-1.459l-5.52-9.562
		c7.925-4.577,18.049-1.856,22.625,6.07c1.346,2.328,6.136,10.625,7.479,12.953c4.578,7.926,1.862,18.054-6.063,22.619l-5.518-9.563
		c2.443-1.401,3.4-4.408,2.322-6.933c-0.087-0.204-0.185-0.401-0.303-0.598L55.361,136.05z"/>
	<path clip-path="url(#SVGID_2_)" fill="none" stroke="#D1D1D1" stroke-width="0.25" stroke-miterlimit="10" d="M84.187,135.248
		L84.187,135.248c-0.113-0.197-0.208-0.396-0.298-0.598c-1.077-2.537-0.12-5.533,2.321-6.947l-5.522-9.562
		c-7.92,4.575-10.634,14.705-6.059,22.632c1.346,2.325,6.135,10.625,7.48,12.954c4.575,7.925,14.699,10.635,22.625,6.057
		l-5.524-9.562c-2.442,1.414-5.518,0.741-7.167-1.459c-0.134-0.179-0.26-0.365-0.372-0.562L84.187,135.248z"/>
	<path clip-path="url(#SVGID_2_)" fill="none" stroke="#D1D1D1" stroke-width="0.25" stroke-miterlimit="10" d="M153.364,136.05
		L153.364,136.05c-0.111-0.196-0.238-0.379-0.374-0.56c-1.647-2.203-4.727-2.873-7.17-1.459l-5.519-9.562
		c7.924-4.577,18.049-1.856,22.623,6.07c1.348,2.328,6.137,10.625,7.48,12.953c4.577,7.926,1.861,18.054-6.064,22.619l-5.518-9.563
		c2.443-1.401,3.4-4.408,2.322-6.933c-0.087-0.204-0.185-0.401-0.303-0.598L153.364,136.05z"/>
</g>
</svg>
